<?xml version="1.0" encoding="UTF-8" standalone="no"?>
<!DOCTYPE svg PUBLIC "-//W3C//DTD SVG 1.1//EN" "http://www.w3.org/Graphics/SVG/1.1/DTD/svg11.dtd">
<svg width="100%" height="100%" viewBox="0 0 225 249" version="1.1" xmlns="http://www.w3.org/2000/svg" xmlns:xlink="http://www.w3.org/1999/xlink" xml:space="preserve" xmlns:serif="http://www.serif.com/" style="fill-rule:evenodd;clip-rule:evenodd;stroke-linejoin:round;stroke-miterlimit:2;">
    <g transform="matrix(1,0,0,1,-2491.795276,-1429.356155)">
        <g transform="matrix(1,0,0,1,39.625226,0)">
            <g transform="matrix(0,-1,0.901243,0,844.352955,2257.793163)">
                <path d="M828.437,1806.033L828.437,2010.967C828.437,2023.127 819.539,2033 808.58,2033L787.857,2033C776.898,2033 768,2023.127 768,2010.967L768,1806.033C768,1793.873 776.898,1784 787.857,1784L808.58,1784C819.539,1784 828.437,1793.873 828.437,1806.033Z" style="fill:white;"/>
            </g>
            <g transform="matrix(0,-1,0.901243,0,844.352955,2446.356155)">
                <path d="M828.437,1806.033L828.437,2010.967C828.437,2023.127 819.539,2033 808.58,2033L787.857,2033C776.898,2033 768,2023.127 768,2010.967L768,1806.033C768,1793.873 776.898,1784 787.857,1784L808.58,1784C819.539,1784 828.437,1793.873 828.437,1806.033Z" style="fill:white;"/>
            </g>
            <g transform="matrix(0,-1,0.727509,0,1154.2936,2352.074659)">
                <path d="M828.437,1811.295L828.437,2005.705C828.437,2020.77 819.539,2033 808.58,2033L787.857,2033C776.898,2033 768,2020.77 768,2005.705L768,1811.295C768,1796.23 776.898,1784 787.857,1784L808.58,1784C819.539,1784 828.437,1796.23 828.437,1811.295Z" style="fill:rgb(34,184,214);"/>
            </g>
        </g>
    </g>
</svg>
